<svg width="12" height="12" viewBox="0 0 12 12" fill="none" xmlns="http://www.w3.org/2000/svg">
<path d="M1.8 0H10.2C10.6774 0 11.1352 0.18964 11.4728 0.5272C11.8104 0.864761 12 1.32259 12 1.79997V7.79989C12 8.27727 11.8104 8.7351 11.4728 9.07267C11.1352 9.41023 10.6774 9.59987 10.2 9.59987H3.246L1.026 11.8258C0.969935 11.8814 0.903446 11.9254 0.830344 11.9553C0.757241 11.9852 0.678964 12.0003 0.599999 11.9998C0.521294 12.0019 0.443208 11.9854 0.372 11.9518C0.262428 11.9068 0.168633 11.8304 0.102432 11.7322C0.036232 11.6339 0.000591278 11.5183 0 11.3998V1.79997C0 1.32259 0.189642 0.864761 0.527207 0.5272C0.864773 0.18964 1.32261 0 1.8 0ZM1.2 9.95386L2.574 8.57388C2.63006 8.51827 2.69655 8.47428 2.76966 8.44442C2.84276 8.41456 2.92104 8.39943 3 8.39988H10.2C10.3591 8.39988 10.5117 8.33667 10.6243 8.22415C10.7368 8.11163 10.8 7.95902 10.8 7.79989V1.79997C10.8 1.64085 10.7368 1.48824 10.6243 1.37572C10.5117 1.2632 10.3591 1.19998 10.2 1.19998H1.8C1.64087 1.19998 1.48826 1.2632 1.37574 1.37572C1.26321 1.48824 1.2 1.64085 1.2 1.79997V9.95386Z" fill="#A6A6A6"/>
</svg>
