<svg width="18" height="20" viewBox="0 0 18 20" fill="none" xmlns="http://www.w3.org/2000/svg">
<path d="M9.00007 0.376953V19.6219M11.4796 2.43891C10.7313 2.88994 9.8738 3.12763 9.00007 3.12623C8.12634 3.12763 7.26888 2.88994 6.52056 2.43891M6.52056 17.5599C7.26943 17.1102 8.12652 16.8726 9.00007 16.8726C9.87361 16.8726 10.7307 17.1102 11.4796 17.5599M17.3334 5.18819L0.666748 14.8107M16.787 8.36704C16.0229 7.9433 15.3885 7.31965 14.9518 6.56291C14.5151 5.80617 14.2925 4.94487 14.3079 4.07129M1.21317 11.6318C1.97724 12.0555 2.61163 12.6792 3.04834 13.4359C3.48505 14.1927 3.70764 15.054 3.69224 15.9276M0.666748 5.18819L17.3334 14.8107M1.21317 8.36704C1.97724 7.9433 2.61163 7.31965 3.04834 6.56291C3.48505 5.80617 3.70764 4.94487 3.69224 4.07129M16.787 11.6318C16.0229 12.0555 15.3885 12.6792 14.9518 13.4359C14.5151 14.1927 14.2925 15.054 14.3079 15.9276" stroke="#56B4BB" stroke-linecap="round" stroke-linejoin="round"/>
</svg>
