<svg width="14" height="13" viewBox="0 0 14 13" fill="none" xmlns="http://www.w3.org/2000/svg">
<path d="M6.5387 1.02818C6.71478 0.633173 7.27544 0.633173 7.45151 1.02818L8.8104 4.07671C8.88302 4.23963 9.03697 4.35148 9.21436 4.3702L12.5336 4.72053C12.9637 4.76592 13.1369 5.29915 12.8157 5.58867L10.3363 7.82309C10.2038 7.9425 10.145 8.12349 10.182 8.29797L10.8745 11.563C10.9642 11.9861 10.5106 12.3156 10.136 12.0996L7.24477 10.432C7.09026 10.3429 6.89996 10.3429 6.74545 10.432L3.8542 12.0996C3.47958 12.3156 3.02599 11.9861 3.11572 11.563L3.80825 8.29797C3.84526 8.12348 3.78645 7.9425 3.65395 7.82309L1.17454 5.58867C0.853277 5.29915 1.02653 4.76592 1.45661 4.72053L4.77586 4.3702C4.95324 4.35148 5.1072 4.23963 5.17982 4.07671L6.5387 1.02818Z" fill="#FFB800" stroke="#FFB800" stroke-width="0.999388"/>
</svg>
